<svg width="19" height="23" viewBox="0 0 19 23" fill="none" xmlns="http://www.w3.org/2000/svg">
<path d="M15.7689 12.3007C15.7796 11.4661 16.0013 10.6477 16.4134 9.92172C16.8254 9.19576 17.4143 8.58582 18.1254 8.14865C17.6737 7.50348 17.0777 6.97254 16.3849 6.59799C15.6921 6.22343 14.9215 6.01559 14.1343 5.99096C12.455 5.81469 10.8271 6.99579 9.97137 6.99579C9.0991 6.99579 7.7816 6.00846 6.36287 6.03765C5.4452 6.06729 4.55085 6.33415 3.76697 6.81221C2.98309 7.29027 2.33642 7.96323 1.88995 8.76553C-0.0440497 12.114 1.39854 17.035 3.25115 19.7417C4.17805 21.067 5.26133 22.5475 6.67878 22.495C8.06584 22.4375 8.58388 21.6105 10.2582 21.6105C11.9169 21.6105 12.403 22.495 13.8492 22.4616C15.3376 22.4374 16.2753 21.1304 17.1697 19.7924C17.8357 18.8481 18.3481 17.8044 18.6881 16.6999C17.8234 16.3342 17.0855 15.722 16.5664 14.9397C16.0472 14.1574 15.7699 13.2396 15.7689 12.3007V12.3007Z" fill="white"/>
<path d="M13.0372 4.21105C13.8488 3.23685 14.2486 1.98468 14.1518 0.720459C12.9119 0.850679 11.7667 1.44323 10.9442 2.38006C10.542 2.83772 10.234 3.37015 10.0378 3.94692C9.84155 4.52368 9.76091 5.13347 9.80047 5.74142C10.4206 5.74781 11.0341 5.6134 11.5948 5.34831C12.1554 5.08323 12.6486 4.69438 13.0372 4.21105Z" fill="white"/>
</svg>
